<mxfile host="app.diagrams.net" modified="2023-02-11T21:01:44.220Z" agent="5.0 (Windows NT 10.0; Win64; x64) AppleWebKit/537.36 (KHTML, like Gecko) Chrome/109.0.0.0 Safari/537.36" etag="rvYzcvuHgD65PUMP3dXc" version="20.8.17" type="github">
  <diagram name="Page-1" id="90a13364-a465-7bf4-72fc-28e22215d7a0">
    <mxGraphModel dx="3187.5" dy="769" grid="1" gridSize="10" guides="1" tooltips="1" connect="1" arrows="1" fold="1" page="1" pageScale="1.5" pageWidth="1169" pageHeight="826" background="none" math="0" shadow="0">
      <root>
        <mxCell id="0" style=";html=1;" />
        <mxCell id="1" style=";html=1;" parent="0" />
        <mxCell id="QJkubPFk-c3f9WA3xLjl-14" style="edgeStyle=none;rounded=0;orthogonalLoop=1;jettySize=auto;html=1;exitX=1;exitY=0.5;exitDx=0;exitDy=0;entryX=0;entryY=0.5;entryDx=0;entryDy=0;" edge="1" parent="1" source="gC0-dVrv1vUqgVdrwK94-1" target="QJkubPFk-c3f9WA3xLjl-2">
          <mxGeometry relative="1" as="geometry" />
        </mxCell>
        <mxCell id="gC0-dVrv1vUqgVdrwK94-1" value="&lt;b&gt;&lt;u&gt;OneDrive&lt;/u&gt;&lt;/b&gt;&lt;br&gt;Google Data:&lt;br style=&quot;border-color: var(--border-color);&quot;&gt;saved, labeled, favorite places&lt;br&gt;&lt;br&gt;Yelp:&lt;br&gt;Collection items&amp;nbsp;" style="whiteSpace=wrap;html=1;shadow=1;fontSize=18;fillColor=#f5f5f5;strokeColor=#666666;" parent="1" vertex="1">
          <mxGeometry x="220" y="377" width="140" height="196" as="geometry" />
        </mxCell>
        <mxCell id="gC0-dVrv1vUqgVdrwK94-9" value="&lt;b&gt;Input / Source&lt;/b&gt;" style="text;strokeColor=none;align=center;fillColor=none;html=1;verticalAlign=middle;whiteSpace=wrap;rounded=0;fontSize=18;" parent="1" vertex="1">
          <mxGeometry x="209" y="347" width="156" height="30" as="geometry" />
        </mxCell>
        <mxCell id="QJkubPFk-c3f9WA3xLjl-15" style="edgeStyle=orthogonalEdgeStyle;rounded=0;orthogonalLoop=1;jettySize=auto;html=1;exitX=1;exitY=0.5;exitDx=0;exitDy=0;entryX=0;entryY=0.5;entryDx=0;entryDy=0;" edge="1" parent="1" source="QJkubPFk-c3f9WA3xLjl-1" target="QJkubPFk-c3f9WA3xLjl-3">
          <mxGeometry relative="1" as="geometry" />
        </mxCell>
        <mxCell id="QJkubPFk-c3f9WA3xLjl-1" value="&lt;b&gt;&lt;u&gt;OneDrive&lt;/u&gt;&lt;/b&gt;&lt;br&gt;Google Data:&lt;br style=&quot;border-color: var(--border-color);&quot;&gt;saved, labeled, favorite places&lt;br&gt;&lt;br&gt;Yelp:&lt;br&gt;Collection items&amp;nbsp;" style="whiteSpace=wrap;html=1;shadow=1;fontSize=18;fillColor=#f5f5f5;strokeColor=#666666;" vertex="1" parent="1">
          <mxGeometry x="220" y="660" width="140" height="196" as="geometry" />
        </mxCell>
        <mxCell id="QJkubPFk-c3f9WA3xLjl-16" style="edgeStyle=orthogonalEdgeStyle;rounded=0;orthogonalLoop=1;jettySize=auto;html=1;exitX=1;exitY=0.5;exitDx=0;exitDy=0;entryX=0;entryY=0.5;entryDx=0;entryDy=0;" edge="1" parent="1" source="QJkubPFk-c3f9WA3xLjl-2" target="QJkubPFk-c3f9WA3xLjl-4">
          <mxGeometry relative="1" as="geometry" />
        </mxCell>
        <mxCell id="QJkubPFk-c3f9WA3xLjl-2" value="&lt;b&gt;&lt;u&gt;Data Format:&lt;/u&gt;&lt;/b&gt;" style="whiteSpace=wrap;html=1;shadow=1;fontSize=18;fillColor=#f5f5f5;strokeColor=#666666;" vertex="1" parent="1">
          <mxGeometry x="444" y="377" width="140" height="196" as="geometry" />
        </mxCell>
        <mxCell id="QJkubPFk-c3f9WA3xLjl-17" style="edgeStyle=orthogonalEdgeStyle;rounded=0;orthogonalLoop=1;jettySize=auto;html=1;exitX=1;exitY=0.5;exitDx=0;exitDy=0;entryX=0;entryY=0.75;entryDx=0;entryDy=0;" edge="1" parent="1" source="QJkubPFk-c3f9WA3xLjl-3" target="QJkubPFk-c3f9WA3xLjl-4">
          <mxGeometry relative="1" as="geometry" />
        </mxCell>
        <mxCell id="QJkubPFk-c3f9WA3xLjl-3" value="&lt;b&gt;&lt;u&gt;Data Format:&lt;/u&gt;&lt;/b&gt;" style="whiteSpace=wrap;html=1;shadow=1;fontSize=18;fillColor=#f5f5f5;strokeColor=#666666;" vertex="1" parent="1">
          <mxGeometry x="444" y="660" width="140" height="196" as="geometry" />
        </mxCell>
        <mxCell id="QJkubPFk-c3f9WA3xLjl-18" style="edgeStyle=orthogonalEdgeStyle;rounded=0;orthogonalLoop=1;jettySize=auto;html=1;exitX=1;exitY=0.5;exitDx=0;exitDy=0;" edge="1" parent="1" source="QJkubPFk-c3f9WA3xLjl-4" target="QJkubPFk-c3f9WA3xLjl-5">
          <mxGeometry relative="1" as="geometry" />
        </mxCell>
        <mxCell id="QJkubPFk-c3f9WA3xLjl-4" value="&lt;b&gt;Cleanse, Join, and Transform&lt;/b&gt;" style="whiteSpace=wrap;html=1;shadow=1;fontSize=18;fillColor=#f5f5f5;strokeColor=#666666;" vertex="1" parent="1">
          <mxGeometry x="678" y="510" width="140" height="196" as="geometry" />
        </mxCell>
        <mxCell id="QJkubPFk-c3f9WA3xLjl-5" value="&lt;span style=&quot;text-decoration-line: underline;&quot;&gt;Excel (tabular format)&lt;/span&gt;&lt;br&gt;Name&lt;br&gt;City&lt;br&gt;State&lt;br&gt;Count&lt;br&gt;Note" style="whiteSpace=wrap;html=1;shadow=1;fontSize=18;fillColor=#f5f5f5;strokeColor=#666666;" vertex="1" parent="1">
          <mxGeometry x="910" y="510" width="140" height="196" as="geometry" />
        </mxCell>
        <mxCell id="QJkubPFk-c3f9WA3xLjl-7" style="edgeStyle=elbowEdgeStyle;rounded=0;orthogonalLoop=1;jettySize=auto;html=1;exitX=0.88;exitY=0.25;exitDx=0;exitDy=0;exitPerimeter=0;entryX=0;entryY=0.5;entryDx=0;entryDy=0;" edge="1" parent="1" source="QJkubPFk-c3f9WA3xLjl-6" target="gC0-dVrv1vUqgVdrwK94-1">
          <mxGeometry relative="1" as="geometry" />
        </mxCell>
        <mxCell id="QJkubPFk-c3f9WA3xLjl-8" style="edgeStyle=elbowEdgeStyle;rounded=0;orthogonalLoop=1;jettySize=auto;html=1;exitX=0.8;exitY=0.8;exitDx=0;exitDy=0;exitPerimeter=0;entryX=0;entryY=0.5;entryDx=0;entryDy=0;" edge="1" parent="1" source="QJkubPFk-c3f9WA3xLjl-6" target="QJkubPFk-c3f9WA3xLjl-1">
          <mxGeometry relative="1" as="geometry" />
        </mxCell>
        <mxCell id="QJkubPFk-c3f9WA3xLjl-6" value="Find the data" style="ellipse;shape=cloud;whiteSpace=wrap;html=1;" vertex="1" parent="1">
          <mxGeometry x="-10" y="530" width="180" height="130" as="geometry" />
        </mxCell>
        <mxCell id="QJkubPFk-c3f9WA3xLjl-11" value="&lt;b&gt;Data Discovery&lt;/b&gt;" style="text;strokeColor=none;align=center;fillColor=none;html=1;verticalAlign=middle;whiteSpace=wrap;rounded=0;fontSize=18;" vertex="1" parent="1">
          <mxGeometry x="436" y="347" width="156" height="30" as="geometry" />
        </mxCell>
        <mxCell id="QJkubPFk-c3f9WA3xLjl-12" value="&lt;b&gt;Output / Target&lt;/b&gt;" style="text;strokeColor=none;align=center;fillColor=none;html=1;verticalAlign=middle;whiteSpace=wrap;rounded=0;fontSize=18;" vertex="1" parent="1">
          <mxGeometry x="902" y="480" width="156" height="30" as="geometry" />
        </mxCell>
        <mxCell id="QJkubPFk-c3f9WA3xLjl-13" value="&lt;font style=&quot;font-size: 14px;&quot;&gt;&lt;b&gt;&lt;u&gt;Available Data&lt;/u&gt;&lt;/b&gt;&lt;br&gt;Name&lt;br&gt;Location&lt;br&gt;Phone Number&lt;br&gt;Note&lt;br&gt;&lt;/font&gt;" style="shape=cylinder3;whiteSpace=wrap;html=1;boundedLbl=1;backgroundOutline=1;size=15;" vertex="1" parent="1">
          <mxGeometry x="444" y="1010" width="186" height="140" as="geometry" />
        </mxCell>
        <mxCell id="QJkubPFk-c3f9WA3xLjl-20" value="Final Table" style="swimlane;childLayout=stackLayout;horizontal=1;startSize=20;horizontalStack=0;rounded=1;fontSize=14;fontStyle=1;strokeWidth=2;resizeParent=0;resizeLast=1;shadow=0;dashed=0;align=center;" vertex="1" parent="1">
          <mxGeometry x="740" y="1010" width="160" height="140" as="geometry" />
        </mxCell>
        <mxCell id="QJkubPFk-c3f9WA3xLjl-21" value="Name&#xa;City&#xa;State&#xa;Country&#xa;Note" style="align=left;strokeColor=none;fillColor=none;spacingLeft=4;fontSize=15;verticalAlign=top;resizable=0;rotatable=0;part=1;" vertex="1" parent="QJkubPFk-c3f9WA3xLjl-20">
          <mxGeometry y="20" width="160" height="120" as="geometry" />
        </mxCell>
        <mxCell id="QJkubPFk-c3f9WA3xLjl-23" value="" style="endArrow=classic;html=1;rounded=0;fontSize=14;entryX=0;entryY=0.5;entryDx=0;entryDy=0;" edge="1" parent="1" target="QJkubPFk-c3f9WA3xLjl-21">
          <mxGeometry width="50" height="50" relative="1" as="geometry">
            <mxPoint x="567" y="1092" as="sourcePoint" />
            <mxPoint x="647" y="1092" as="targetPoint" />
          </mxGeometry>
        </mxCell>
        <mxCell id="QJkubPFk-c3f9WA3xLjl-24" value="" style="endArrow=classic;html=1;rounded=0;fontSize=14;exitX=0.624;exitY=0.478;exitDx=0;exitDy=0;exitPerimeter=0;entryX=0.022;entryY=0.167;entryDx=0;entryDy=0;entryPerimeter=0;" edge="1" parent="1" source="QJkubPFk-c3f9WA3xLjl-13" target="QJkubPFk-c3f9WA3xLjl-21">
          <mxGeometry width="50" height="50" relative="1" as="geometry">
            <mxPoint x="640" y="1074" as="sourcePoint" />
            <mxPoint x="720" y="1074" as="targetPoint" />
          </mxGeometry>
        </mxCell>
        <mxCell id="QJkubPFk-c3f9WA3xLjl-25" value="" style="endArrow=classic;html=1;rounded=0;fontSize=14;entryX=0;entryY=0.75;entryDx=0;entryDy=0;" edge="1" parent="1" target="QJkubPFk-c3f9WA3xLjl-21">
          <mxGeometry width="50" height="50" relative="1" as="geometry">
            <mxPoint x="554" y="1127" as="sourcePoint" />
            <mxPoint x="727" y="1125" as="targetPoint" />
          </mxGeometry>
        </mxCell>
        <mxCell id="QJkubPFk-c3f9WA3xLjl-26" value="We&#39;ll need the phone number to connect names from Yelp and Google" style="text;strokeColor=none;align=center;fillColor=none;html=1;verticalAlign=middle;whiteSpace=wrap;rounded=0;fontSize=14;fontStyle=1" vertex="1" parent="1">
          <mxGeometry x="444" y="1180" width="190" height="30" as="geometry" />
        </mxCell>
      </root>
    </mxGraphModel>
  </diagram>
</mxfile>
